# xmcd CD database file
#
# Track frame offsets:
#	150
#	19367
#	38485
#
# Disc length: 834 seconds
#
# Revision: 7
# Processed by: cddbd v1.5.2PL0 Copyright (c) Steve Scherf et al.
# Submitted via: CDex 1.70beta2
#
DISCID=1a034003
DTITLE=INOJ - Time After Time Single
DYEAR=1998
DGENRE=R and B
TTITLE0=Time After Time (LP Version)
TTITLE1=Time After Time (Instrumental)
TTITLE2=When Will I See Your Smile
EXTD=Sony - 9870790162 YEAR: 1998
EXTT0=
EXTT1=
EXTT2=
PLAYORDER=
